<svg preserveAspectRatio="none" overflow="visible" style="display: block;" width="24" height="24" viewBox="0 0 24 24" fill="none" xmlns="http://www.w3.org/2000/svg">
<g id="&#231;&#188;&#150;&#231;&#187;&#132;">
<path id="&#229;&#189;&#162;&#231;&#138;&#182;&#231;&#187;&#147;&#229;&#144;&#136;" d="M11.9869 14.4812C12.3924 14.4812 12.7213 14.8338 12.7213 15.2683C12.7213 15.7028 12.3925 16.0554 11.9869 16.0554C11.5815 16.0553 11.2526 15.7027 11.2526 15.2683C11.2526 14.8339 11.5815 14.4813 11.9869 14.4812ZM12.3541 7.38743C12.4214 7.38743 12.477 7.44629 12.4772 7.51829V12.9577C12.4772 13.0299 12.4214 13.0886 12.3541 13.0886H11.6197C11.5524 13.0885 11.4977 13.0299 11.4977 12.9577V7.51829C11.4978 7.44632 11.5525 7.38748 11.6197 7.38743H12.3541Z" fill="#EB4E4E"/>
<g id="&#231;&#188;&#150;&#231;&#187;&#132; 2">
<path id="&#232;&#183;&#175;&#229;&#190;&#132;" d="M18.7642 15.9922C20.538 12.9877 20.1343 9.05355 17.553 6.4723C14.9638 3.88314 11.0134 3.48485 8.00549 5.27745" stroke="#EB4E4E" stroke-linecap="round" stroke-linejoin="round"/>
<path id="&#232;&#183;&#175;&#229;&#190;&#132;_2" d="M5.2599 8.03508C3.48749 11.0393 3.89162 14.9723 6.4723 17.553C9.03816 20.1189 12.9409 20.5331 15.9384 18.7957" stroke="#EB4E4E" stroke-linecap="round" stroke-linejoin="round"/>
<path id="&#232;&#183;&#175;&#229;&#190;&#132; 2" fill-rule="evenodd" clip-rule="evenodd" d="M17.6032 14.9459L17.5975 17.1731L19.7883 17.131L17.6032 14.9459Z" fill="#EB4E4E"/>
<path id="&#232;&#183;&#175;&#229;&#190;&#132; 2&#229;&#164;&#135;&#228;&#187;&#189;" fill-rule="evenodd" clip-rule="evenodd" d="M4.11991 6.96079L6.34714 6.95505L6.30498 9.14587L4.11991 6.96079Z" fill="#EB4E4E"/>
</g>
</g>
</svg>
